<svg id="Layer_1" data-name="Layer 1" xmlns="http://www.w3.org/2000/svg" viewBox="0 0 1500 1000"><defs><style>.cls-1{fill:#053893;}.cls-2{fill:#020202;}.cls-2,.cls-3,.cls-4{fill-rule:evenodd;}.cls-3{fill:#fff;}.cls-4{fill:#ce0319;}</style></defs><title>New Zealand</title><rect class="cls-1" width="1500" height="1000"/><path class="cls-2" d="M0,0V956.73L248.8,626.16,487.58,463.71,721.36,322.4,834.9,227.83l62.62-76.77,61-87.91L985.39,0ZM0,0"/><path class="cls-3" d="M993.14,0a6.38,6.38,0,0,0-2.73,1.58c-1,.82-7,8.88-14.12,17.6-7.66,9.42-17.47,18-21.32,23s-8.63,19.85-8.86,23.5c-.79,13.16-2.21,19.89-9.23,30.49.91-11.09,3.12-26.35,3.52-39,.31-9.55-2.35-7.44-7.36,2.11-3.45,6.61-6.18,12.24-7.06,21.46-1.38,14.37-1.73,19.37-2.31,30.55-.4,7.73-5.13,13.74-6.91,15.73.1-1.21.5-6.08.87-10.84.87-11.15.62-19,.66-40.4,0-11.36-4.06-9.34-8.37,1.39-2.86,7.09-6,15.2-6.86,24.42-1.38,14.37-.55,28.54-.74,39.76-.14,8.33-5.55,13.72-7.81,15.63,0-1.4.1-9.24.15-14.15.12-11.44,0-33.48,0-49,0-12.51-3.93-9.19-8.46,1.39-7.81,18.28-9.58,28.77-10.47,38-1.38,14.38,0,28.55-.28,39.76a20.37,20.37,0,0,1-8.85,16.42c.07-1.42.41-8.26.47-13.07.13-11.43,0-48.53.07-64,0-12.5-4.14-9.65-8.28-.09-7.89,18.22-12.09,31.6-13.64,47-2,19.52-2,35.69-2.19,46.89-.21,10.05-7.4,15.43-9.54,16.81.09-1.24.55-7.8.8-16.36.85-28.44-.55-42,.24-78.94.27-12.49-3.86-8.65-9.89,1.08A110.37,110.37,0,0,0,808.29,177c-2,19.52-2.46,49.74-2.86,60.95-.43,12-7.47,17.77-10.31,19.65.08-1,.6-7.82.86-16.56.85-28.42.95-60.25,1.74-97.16.28-12.5-3.72-8.81-9.05-.06-11.3,18.59-20.26,45.27-22.39,69.1-1.74,19.57-3.2,49.12-3.6,60.32-.44,12.4-8.48,18.08-11.28,19.68.47-4.48,2.51-24.45,2.77-32.83.84-28.43,2.26-66,3.93-101.74.57-12.48-3.15-10.79-8.71-2.31-16.12,24.6-25.56,53.81-28.26,82.39-1.85,19.54-4.24,59.13-4.74,70.33a21.52,21.52,0,0,1-11.61,18.73c.07-2.1.78-22.77,1.05-31.72.85-28.44,3.07-82.42,4.73-118.17.59-12.48-3.22-10.74-8.78-2.25-16.11,24.6-26.64,51-30.16,79.44-2.26,18.27-4.74,73.72-4.8,84.92a24.76,24.76,0,0,1-13.62,22.5c.16-3.72,4.93-116.49,6.88-165.87.54-13.4-3.51-12.1-9.06-3.61-16.11,24.6-29.65,68.38-33.64,101.64-2.19,18.3-4.06,66.33-4.11,77.55a26.51,26.51,0,0,1-16.1,24.83c.13-1.9,1.47-24.4,3-59.49,1.93-43.65,4.18-103.44,5.26-130.72.53-13.39-3.79-11.94-9.45-3.57-19.47,28.81-33,70.66-35.74,97.92-1.85,18.36-5.52,97.12-5.55,108.34-.05,14.25-15.21,19.74-17.54,20.5.1-2.42,7.43-186.17,8.45-209.92.57-13.39-2.78-12.55-9.82-3.32-19.24,25.26-37.93,66.31-42.78,114.25-1.86,18.36-6.32,101.91-6.36,113.12,0,13.67-14.31,20.51-17.56,21.89,0-1.46,2.82-204.11,3.09-228,.16-13.42-3.2-12.2-10.23-3-19.24,25.26-41.19,69-47,126.1-1.87,18.35-6.86,115.67-6.71,126.89.17,12.4-13.09,20-16.68,21.8,0-1.6,2.46-226.94,2.73-250.85.16-13.41-4.38-13.05-10.71-3-17.88,28.52-44.45,76.19-48.36,150.65-1,18.49-5.09,121.25-4.42,132.43.64,10.85-10.58,19.71-14.23,22.3-.11-3-8.26-255.75-8.94-276.56-.42-13.4-5.71-13.06-11.49-2.4-16.34,30.18-39.35,70.81-45.77,151.65-1.46,18.43-1.09,158-1.09,169.24,0,12.43-12.9,22.3-15.93,24.45-.1-3.07-10.59-299.19-10.59-320,0-9.57-5.81-13.18-11.58-2.52C194.84,335.08,175.12,377,166.6,438.65c-7.16,51.8-5,113.52-2.9,163.09,1.39,32.3,4.12,62.28,5.41,78.62,1,13.16-11.32,23.87-14.79,26.6-.24-3-27.52-330.09-29.22-354.41-.58-8.25-7.22-12.71-12.69-1.77C98.09,379.38,78.51,437.37,73,481.14c-9.56,75.41-3.61,115.53-.31,167.91,2.21,35.13,11.75,106.21,14.59,126.89,1.15,8.42-6.13,16.87-9.38,21L0,897.07V1000H1s28.22-47.4,58.39-93.48c28.57-43.61,58.22-84.41,61.15-87.81,8.49-9.84,17.86-7.87,25.39-3.89,35.64,18.87,115.27,70.78,154.73,80.9,31.5,8.06,68.17,11.54,93.89,7.93,8.67-1.23,9.63-9,4.41-13.53-36-31-197.49-170.77-200-173,2.8-3.76,13.9-17.29,24.21-10.15,49,34,81,65.79,126.21,91.16,32.46,18.22,77,31.62,105,32.35,9.88.26,9.45-6.84,3.52-12.28-17.1-15.75-161.64-178.41-173.12-188,3.3-3.28,14.84-13.52,23.17-6.49s62.83,65.32,74.76,74.92c57,45.9,115.3,56,131,57,9.88.66,11.8-4.21,4.26-13.15s-73.76-83.88-116.2-134.95c-21-25.33-35.66-39.71-38.14-42.12,3.3-2.73,14.77-11.19,22.41-3.85,8,7.66,51.69,56.06,73.69,72.26,48.62,35.8,99.64,45.84,120.33,45.74,8.08,0,10.67-5.2,3.45-12.85-8-8.5-62-67.91-99.19-107.4C459.42,533,438.71,517,436.19,515.08c3.16-2.43,16.7-12,24.21-4.3,6.67,6.88,57.4,53.93,77.16,67.26,37,24.94,74.77,34.13,105.91,34.79,11.22.24,12.12-3.4,4.74-11.24-10.35-11-76.9-77.54-97.47-97.85a313.81,313.81,0,0,0-39-33.06c3.07-2.43,14.25-10.31,22.64-3.21,8.7,7.35,58.19,48.54,71.12,55.54,33.52,18.14,59.23,24.27,82.87,25.18,11.82.44,14.75-4.12,6.2-11.28-21.5-18-57.12-54-80.89-74.56-20.62-17.82-36-27.08-38.25-28.38,2.38-2,11.47-8.79,20.47-2.81,7.55,5,46.3,32.85,72.09,45.12,21.09,10,48.78,16.48,77.94,16.58,9.84,0,11.87-4,3.17-10.86-17.71-13.91-60.21-47.32-89.13-68.22a205,205,0,0,0-26.7-16.08c2.49-2.28,12.78-10.43,23.7-1.52,7.2,5.88,48.18,30.71,61.53,36.11,22.54,9.14,58.37,12.75,70.78,11.06,8.42-1.14,10.38-4.49,1.54-11-15.11-11.11-67.39-48.79-76.73-54.47-14.83-9.05-24.74-14.11-27.63-15.55,2.75-3.07,10.6-10.31,19.85-4.46,7.63,4.83,43.34,27,62.81,31.79,20.06,5,44,6.65,64.24,1.49,10.09-2.58,13-6.62,4.29-11.38-25-13.65-61.42-34.14-81.05-45.56-5.35-3.12-15.35-8.32-19.33-10.4,2.5-2.59,8.71-7.64,16.54-4.11,8,3.62,37,17.53,51.39,22.35,16.86,5.65,48.85,3.62,66.78-2,8.25-2.6,11.57-7.1,2.65-11.1-25.57-11.44-44.22-19.92-64.39-29.6-4.95-2.39-20.87-8.16-28.73-11,2.35-3.16,8.14-9.25,16.38-6.25s21,6.89,35.48,11.08a102.69,102.69,0,0,0,60.74-1.48c9.19-3.07,13.36-8.41,4.31-11.94-29.41-10.24-47.74-20.54-75.32-28.69,1-2,4-5.86,11.75-4.65,8.75,1.38,25.83,8.36,44.27,8,11.72-.21,26.78-4.47,41.87-12.35,5.6-2.93,9.25-8.66-.09-10.27-25.66-4.42-37.22-8.83-52.35-11.6-6.3-1.16-11.37-1.72-12.46-1.83,1.56-2.46,5.27-6.85,11.69-6.7,8.44.19,21,4.15,35.79,2.37,8.26-1,21.78-6,34.56-14.22,7.47-4.79,9.91-10.07.49-10.61-11.68-.67-33.25-2.63-41.86-3-3.4-.14-9.11.05-11,.12.86-1.78,4.49-8.13,12.13-8.49,8.44-.42,22.63-.07,33.44-2,6.92-1.25,12.33-3,24.89-15.76,6.88-7,10.31-12,.88-11.88-11.69.17-21.38.42-30,.69-3.73.12-11.37.89-12.58,1,.62-1.55,2.82-5.8,9.2-7.18,8.43-1.8,17.84-1.44,28.16-6.16,6.61-3,11.81-7.64,16.46-12.79,7-7.8,7.29-12.81-2.85-10.74-15.92,3.24-10.32,1.64-18.66,3.76-3.62.92-11.12,3-12.45,3.41a14,14,0,0,1,8.42-8.06c8.17-2.87,7.82-1.57,18.14-6.25,4.81-2.18,11.32-7.93,15.55-13.68,6.11-8.34,7.31-11.76.3-9.54-9,2.85-18.91,8.06-26.82,11.36,4.24-6.06,6.28-9.73,15.75-15.13s15.24-13.29,17.45-23c.75-3.33,3.22-17.25,5.81-29.45,2.31-10.91,5-20.16,5.28-22.21.42-2.71,0-4.28-1.17-4.26Zm0,0"/><path class="cls-3" d="M1180.62,220.45l-16.78,50.85-53.58.29,43.31,31.61-16.29,50.92,43.5-31.32,43.55,31.2-16.45-51,43.22-31.64-53.68-.19Zm0,0"/><path class="cls-3" d="M1322.79,352.12l-15,45.56-48,.26,38.8,28.31L1284,471.88l39-28.08,39,28-14.72-45.65,38.71-28.36-48.08-.14Zm0,0"/><path class="cls-3" d="M1018.31,387.33l-16.88,51.29-54.06.28,43.69,31.87-16.44,51.36,43.89-31.6L1062.4,522l-16.55-51.4,43.53-31.92-54.09-.16Zm0,0"/><path class="cls-3" d="M1181,642.23l-17.67,53.64-56.54.28,45.68,33.36-17.2,53.7,45.92-33,45.9,32.91-17.31-53.75L1255.31,696l-56.6-.18Zm0,0"/><path class="cls-4" d="M1180.16,250.34l-9.84,29.91-31.56.17L1164.25,299l-9.59,30,25.6-18.42,25.62,18.35-9.65-30,25.41-18.63-31.58-.09Zm0,0"/><path class="cls-4" d="M1322.4,378.91l-8.84,26.8-28.27.15,22.84,16.65-8.6,26.85,23-16.51,22.93,16.44-8.64-26.85,22.76-16.68-28.29-.1Zm0,0"/><path class="cls-4" d="M1017.86,417.47l-9.92,30.17-31.8.16,25.69,18.75-9.66,30.23L1018,478.19l25.83,18.52-9.75-30.25,25.62-18.78-31.83-.09Zm0,0"/><path class="cls-4" d="M1180.49,673.75l-10.38,31.56-33.29.17,26.91,19.62-10.13,31.61,27-19.43,27,19.36L1197.42,725l26.83-19.65-33.32-.11Zm0,0"/></svg>